<svg viewBox="0 0 621 672" fill="none" xmlns="http://www.w3.org/2000/svg">
<g filter="url(#filter0_n_0_1)">
<rect x="0.128906" y="15" width="592" height="592" rx="144" fill="#101028"/>
</g>
<g filter="url(#filter1_i_0_1)">
<path d="M526.656 425.135C526.694 425.173 526.731 425.212 526.769 425.251L540.381 438.862C555.097 453.579 555.097 477.44 540.381 492.156C525.664 506.873 501.804 506.872 487.088 492.156L440.266 445.334L440.268 445.333L426.54 431.605C437.574 425.805 447.933 418.265 457.212 408.987C466.491 399.708 474.032 389.347 479.832 378.311L526.656 425.135ZM207.707 285.453C222.424 270.736 246.285 270.736 261.001 285.453L322.37 346.821C342.66 367.111 375.559 367.111 395.85 346.82C416.141 326.53 416.141 293.632 395.85 273.341L313.853 191.343C358.934 174.498 411.68 184.2 447.931 220.451C497.431 269.952 497.432 350.208 447.931 399.709C398.43 449.209 318.173 449.209 268.672 399.709C268.538 399.575 268.405 399.439 268.271 399.304L268.268 399.307L207.708 338.746C192.992 324.03 192.991 300.169 207.707 285.453ZM144.724 222.469C193.685 173.508 272.735 172.977 322.352 220.872L322.37 220.854L386.968 285.452C401.684 300.168 401.684 324.028 386.968 338.745C372.251 353.461 348.391 353.461 333.674 338.745L327.214 332.285L327.213 332.285L270.285 275.358C249.995 255.067 217.097 255.067 196.806 275.358C176.515 295.649 176.515 328.547 196.806 348.837L278.803 430.835C233.721 447.68 180.975 437.979 144.724 401.728C95.2234 352.227 95.2232 271.97 144.724 222.469ZM51.8717 129.609C66.5881 114.893 90.4479 114.893 105.164 129.609L151.987 176.431C151.985 176.432 151.984 176.432 151.983 176.433L165.711 190.161C154.677 195.961 144.318 203.5 135.04 212.777C125.761 222.057 118.22 232.419 112.42 243.455L65.596 196.631C65.5431 196.578 65.4919 196.524 65.4393 196.47L51.871 182.902C37.1548 168.186 37.1553 144.325 51.8717 129.609Z" fill="white"/>
</g>
<g filter="url(#filter2_f_0_1)">
<ellipse cx="188" cy="139" rx="188" ry="139" transform="matrix(-1 0 0 1 484.129 294)" fill="#001EFF" fill-opacity="0.1"/>
</g>
<g filter="url(#filter3_f_0_1)">
<ellipse cx="145" cy="97" rx="145" ry="97" transform="matrix(-1 0 0 1 520.129 100)" fill="#101028"/>
</g>
<g filter="url(#filter4_i_0_1)">
<path d="M144.724 221.487C193.685 172.525 272.735 171.995 322.352 219.889L322.37 219.871L386.968 284.47C401.684 299.186 401.684 323.046 386.968 337.762C372.251 352.478 348.391 352.479 333.674 337.763L327.214 331.302L327.213 331.303L270.285 274.375C249.995 254.085 217.097 254.085 196.806 274.375C176.515 294.666 176.515 327.564 196.806 347.855L278.803 429.852C233.721 446.698 180.975 436.996 144.724 400.745C95.2234 351.244 95.2232 270.987 144.724 221.487ZM51.8717 128.626C66.5881 113.91 90.4479 113.91 105.164 128.626L151.987 175.449C151.985 175.449 151.984 175.45 151.983 175.45L165.711 189.179C154.677 194.979 144.318 202.517 135.04 211.795C125.761 221.075 118.22 231.436 112.42 242.473L65.596 195.649C65.5431 195.596 65.4919 195.541 65.4393 195.488L51.871 181.92C37.1548 167.203 37.1553 143.343 51.8717 128.626Z" fill="white"/>
</g>
<g filter="url(#filter5_i_0_1)">
<path d="M512.57 327.851C526.664 313.758 549.515 313.758 563.608 327.851L592.355 356.599V458.675L512.57 378.89C498.477 364.796 498.477 341.945 512.57 327.851Z" fill="white"/>
</g>
<g filter="url(#filter6_i_0_1)">
<path d="M78.1465 240.428C92.2403 254.522 92.2403 277.372 78.1465 291.466C64.0527 305.559 41.2021 305.56 27.1084 291.466L0 264.356V162.281L78.1465 240.428Z" fill="white"/>
</g>
<defs>
<filter id="filter0_n_0_1" x="0.128906" y="15" width="592" height="592" filterUnits="userSpaceOnUse" color-interpolation-filters="sRGB">
<feFlood flood-opacity="0" result="BackgroundImageFix"/>
<feBlend mode="normal" in="SourceGraphic" in2="BackgroundImageFix" result="shape"/>
<feTurbulence type="fractalNoise" baseFrequency="0.05000000074505806 0.05000000074505806" stitchTiles="stitch" numOctaves="3" result="noise" seed="4737" />
<feColorMatrix in="noise" type="luminanceToAlpha" result="alphaNoise" />
<feComponentTransfer in="alphaNoise" result="coloredNoise1">
<feFuncA type="discrete" tableValues="1 1 1 1 1 1 1 1 1 1 1 1 1 1 1 1 1 1 1 1 1 1 1 1 1 1 1 1 1 1 1 1 1 1 1 1 1 1 1 1 1 1 1 1 1 1 1 1 1 1 1 0 0 0 0 0 0 0 0 0 0 0 0 0 0 0 0 0 0 0 0 0 0 0 0 0 0 0 0 0 0 0 0 0 0 0 0 0 0 0 0 0 0 0 0 0 0 0 0 0 "/>
</feComponentTransfer>
<feComposite operator="in" in2="shape" in="coloredNoise1" result="noise1Clipped" />
<feFlood flood-color="rgba(48, 48, 48, 0.3)" result="color1Flood" />
<feComposite operator="in" in2="noise1Clipped" in="color1Flood" result="color1" />
<feMerge result="effect1_noise_0_1">
<feMergeNode in="shape" />
<feMergeNode in="color1" />
</feMerge>
</filter>
<filter id="filter1_i_0_1" x="40.8359" y="118.572" width="510.582" height="384.621" filterUnits="userSpaceOnUse" color-interpolation-filters="sRGB">
<feFlood flood-opacity="0" result="BackgroundImageFix"/>
<feBlend mode="normal" in="SourceGraphic" in2="BackgroundImageFix" result="shape"/>
<feColorMatrix in="SourceAlpha" type="matrix" values="0 0 0 0 0 0 0 0 0 0 0 0 0 0 0 0 0 0 127 0" result="hardAlpha"/>
<feOffset dy="25"/>
<feComposite in2="hardAlpha" operator="arithmetic" k2="-1" k3="1"/>
<feColorMatrix type="matrix" values="0 0 0 0 0 0 0 0 0 0 0 0 0 0 0 0 0 0 0.25 0"/>
<feBlend mode="normal" in2="shape" result="effect1_innerShadow_0_1"/>
</filter>
<filter id="filter2_f_0_1" x="8.12891" y="194" width="576" height="478" filterUnits="userSpaceOnUse" color-interpolation-filters="sRGB">
<feFlood flood-opacity="0" result="BackgroundImageFix"/>
<feBlend mode="normal" in="SourceGraphic" in2="BackgroundImageFix" result="shape"/>
<feGaussianBlur stdDeviation="50" result="effect1_foregroundBlur_0_1"/>
</filter>
<filter id="filter3_f_0_1" x="130.129" y="0" width="490" height="394" filterUnits="userSpaceOnUse" color-interpolation-filters="sRGB">
<feFlood flood-opacity="0" result="BackgroundImageFix"/>
<feBlend mode="normal" in="SourceGraphic" in2="BackgroundImageFix" result="shape"/>
<feGaussianBlur stdDeviation="50" result="effect1_foregroundBlur_0_1"/>
</filter>
<filter id="filter4_i_0_1" x="40.8359" y="117.59" width="357.168" height="320.279" filterUnits="userSpaceOnUse" color-interpolation-filters="sRGB">
<feFlood flood-opacity="0" result="BackgroundImageFix"/>
<feBlend mode="normal" in="SourceGraphic" in2="BackgroundImageFix" result="shape"/>
<feColorMatrix in="SourceAlpha" type="matrix" values="0 0 0 0 0 0 0 0 0 0 0 0 0 0 0 0 0 0 127 0" result="hardAlpha"/>
<feOffset dy="25"/>
<feComposite in2="hardAlpha" operator="arithmetic" k2="-1" k3="1"/>
<feColorMatrix type="matrix" values="0 0 0 0 0 0 0 0 0 0 0 0 0 0 0 0 0 0 0.25 0"/>
<feBlend mode="normal" in2="shape" result="effect1_innerShadow_0_1"/>
</filter>
<filter id="filter5_i_0_1" x="502" y="317.281" width="90.3555" height="141.394" filterUnits="userSpaceOnUse" color-interpolation-filters="sRGB">
<feFlood flood-opacity="0" result="BackgroundImageFix"/>
<feBlend mode="normal" in="SourceGraphic" in2="BackgroundImageFix" result="shape"/>
<feColorMatrix in="SourceAlpha" type="matrix" values="0 0 0 0 0 0 0 0 0 0 0 0 0 0 0 0 0 0 127 0" result="hardAlpha"/>
<feOffset dy="25"/>
<feComposite in2="hardAlpha" operator="arithmetic" k2="-1" k3="1"/>
<feColorMatrix type="matrix" values="0 0 0 0 0 0 0 0 0 0 0 0 0 0 0 0 0 0 0.25 0"/>
<feBlend mode="normal" in2="shape" result="effect1_innerShadow_0_1"/>
</filter>
<filter id="filter6_i_0_1" x="0" y="162.281" width="88.7188" height="139.755" filterUnits="userSpaceOnUse" color-interpolation-filters="sRGB">
<feFlood flood-opacity="0" result="BackgroundImageFix"/>
<feBlend mode="normal" in="SourceGraphic" in2="BackgroundImageFix" result="shape"/>
<feColorMatrix in="SourceAlpha" type="matrix" values="0 0 0 0 0 0 0 0 0 0 0 0 0 0 0 0 0 0 127 0" result="hardAlpha"/>
<feOffset dy="25"/>
<feComposite in2="hardAlpha" operator="arithmetic" k2="-1" k3="1"/>
<feColorMatrix type="matrix" values="0 0 0 0 0 0 0 0 0 0 0 0 0 0 0 0 0 0 0.25 0"/>
<feBlend mode="normal" in2="shape" result="effect1_innerShadow_0_1"/>
</filter>
</defs>
</svg>

