<svg viewBox="0 0 658 624" fill="none" xmlns="http://www.w3.org/2000/svg">
<path d="M388.775 0C456.78 17.9969 518.212 55.0821 565.814 106.875C613.417 158.668 645.2 223.004 657.408 292.282L618.067 299.215C595.915 172.639 501.304 70.9872 378.562 38.5908L388.775 0Z" fill="black"/>
<g filter="url(#filter0_d_0_1)">
<circle cx="294.5" cy="356.236" r="232.5" fill="black"/>
</g>
<g filter="url(#filter1_d_0_1)">
<circle cx="294.5" cy="356.236" r="179.5" fill="black"/>
</g>
<path d="M11.0597 331.517C10.3586 339.663 10.0002 347.908 10.0002 356.236C10.0002 454.273 59.5879 540.727 135.049 591.887L128.54 601.339C85.2526 571.526 50.6516 530.76 28.2707 483.202C5.88989 435.645 -3.46923 383 1.14861 330.643L11.0597 331.517Z" fill="black"/>
<path d="M291.5 158.236H298L312 215.736L295 229.236L278 215.736L291.5 158.236Z" fill="#D9D9D9" fill-opacity="0.89"/>
<rect x="146.07" y="574.736" width="5.76894" height="50.1966" transform="rotate(34 146.07 574.736)" fill="black"/>
<defs>
<filter id="filter0_d_0_1" x="27" y="88.7363" width="535" height="535" filterUnits="userSpaceOnUse" color-interpolation-filters="sRGB">
<feFlood flood-opacity="0" result="BackgroundImageFix"/>
<feColorMatrix in="SourceAlpha" type="matrix" values="0 0 0 0 0 0 0 0 0 0 0 0 0 0 0 0 0 0 127 0" result="hardAlpha"/>
<feMorphology radius="15" operator="dilate" in="SourceAlpha" result="effect1_dropShadow_0_1"/>
<feOffset/>
<feGaussianBlur stdDeviation="10"/>
<feComposite in2="hardAlpha" operator="out"/>
<feColorMatrix type="matrix" values="0 0 0 0 0 0 0 0 0 0 0 0 0 0 0 0 0 0 0.25 0"/>
<feBlend mode="normal" in2="BackgroundImageFix" result="effect1_dropShadow_0_1"/>
<feBlend mode="normal" in="SourceGraphic" in2="effect1_dropShadow_0_1" result="shape"/>
</filter>
<filter id="filter1_d_0_1" x="80" y="141.736" width="429" height="429" filterUnits="userSpaceOnUse" color-interpolation-filters="sRGB">
<feFlood flood-opacity="0" result="BackgroundImageFix"/>
<feColorMatrix in="SourceAlpha" type="matrix" values="0 0 0 0 0 0 0 0 0 0 0 0 0 0 0 0 0 0 127 0" result="hardAlpha"/>
<feMorphology radius="15" operator="dilate" in="SourceAlpha" result="effect1_dropShadow_0_1"/>
<feOffset/>
<feGaussianBlur stdDeviation="10"/>
<feComposite in2="hardAlpha" operator="out"/>
<feColorMatrix type="matrix" values="0 0 0 0 1 0 0 0 0 0.989765 0 0 0 0 0.989765 0 0 0 0.11 0"/>
<feBlend mode="normal" in2="BackgroundImageFix" result="effect1_dropShadow_0_1"/>
<feBlend mode="normal" in="SourceGraphic" in2="effect1_dropShadow_0_1" result="shape"/>
</filter>
</defs>
</svg>

